<svg version="1.1" viewBox="130 80 690 335" fill="none" stroke="none" stroke-linecap="square" stroke-miterlimit="10" xmlns:xlink="http://www.w3.org/1999/xlink" xmlns="http://www.w3.org/2000/svg"><clipPath id="g371b26854c9_0_452.0"><path d="m0 0l960.0 0l0 540.0l-960.0 0l0 -540.0z" clip-rule="nonzero"/></clipPath><g clip-path="url(#g371b26854c9_0_452.0)"><path fill="#ffffff" d="m0 0l960.0 0l0 540.0l-960.0 0z" fill-rule="evenodd"/><path fill="#000000" fill-opacity="0.0" d="m135.41235 38.744476l689.1747 0l0 351.68155l-689.1747 0z" fill-rule="evenodd"/><path fill="#4b5273" d="m263.78735 304.4659q-19.96875 0 -36.828125 -6.609375q-16.859375 -6.625 -29.21875 -18.734375q-12.359375 -12.109375 -19.359375 -28.34375q-6.984375 -16.234375 -6.984375 -35.703125q0 -19.484375 6.984375 -35.703125q7.0 -16.234375 19.484375 -28.34375q12.484375 -12.125 29.34375 -18.734375q16.859375 -6.625 36.828125 -6.625q20.234375 0 37.328125 6.875q17.109375 6.859375 29.09375 20.34375l-16.234375 15.734375q-9.984375 -10.484375 -22.46875 -15.59375q-12.484375 -5.125 -26.71875 -5.125q-14.734375 0 -27.34375 5.0q-12.609375 4.984375 -21.859375 13.984375q-9.234375 8.984375 -14.359375 21.34375q-5.109375 12.359375 -5.109375 26.84375q0 14.484375 5.109375 26.84375q5.125 12.359375 14.359375 21.34375q9.25 8.984375 21.859375 13.984375q12.609375 5.0 27.34375 5.0q14.234375 0 26.71875 -5.125q12.484375 -5.125 22.46875 -15.859375l16.234375 15.734375q-11.984375 13.484375 -29.09375 20.484375q-17.09375 6.984375 -37.578125 6.984375z" fill-rule="nonzero"/><path fill="#4b5273" d="m459.81042 302.4659l0 -141.82812l-55.9375 0l0 -32.96875l152.3125 0l0 32.96875l-55.921875 0l0 141.82812l-40.453125 0z" fill-rule="nonzero"/><path fill="#4b5273" d="m681.2972 302.4659l0 -141.82812l-55.9375 0l0 -32.96875l152.3125 0l0 32.96875l-55.921875 0l0 141.82812l-40.453125 0z" fill-rule="nonzero"/><path fill="#000000" fill-opacity="0.0" d="m183.00946 105.44794l196.80457 0l0 217.84808l-196.80457 0z" fill-rule="evenodd"/><path fill="#fea3a3" d="m265.19696 263.80713q-10.859375 0 -20.125 -3.6875q-9.25 -3.703125 -16.078125 -10.375q-6.8125 -6.6875 -10.578125 -15.65625q-3.75 -8.984375 -3.75 -19.71875q0 -10.71875 3.75 -19.6875q3.765625 -8.984375 10.65625 -15.65625q6.890625 -6.6875 16.078125 -10.375q9.1875 -3.703125 20.046875 -3.703125q10.3125 0 19.28125 3.34375q8.984375 3.34375 15.390625 10.171875l-4.453125 4.59375q-6.265625 -6.125 -13.859375 -8.84375q-7.578125 -2.71875 -16.078125 -2.71875q-9.328125 0 -17.328125 3.203125q-8.0 3.203125 -13.921875 9.0625q-5.921875 5.84375 -9.203125 13.640625q-3.265625 7.78125 -3.265625 16.96875q0 9.203125 3.265625 17.0q3.28125 7.78125 9.203125 13.640625q5.921875 5.84375 13.921875 9.046875q8.0 3.203125 17.328125 3.203125q8.5 0 16.078125 -2.71875q7.59375 -2.71875 13.859375 -8.984375l4.453125 4.59375q-6.40625 6.828125 -15.390625 10.25q-8.96875 3.40625 -19.28125 3.40625z" fill-rule="nonzero"/><path fill="#000000" fill-opacity="0.0" d="m213.27449 149.54095l99.55809 0l0 130.88422l-99.55809 0z" fill-rule="evenodd"/><path fill="#fea3a3" d="m265.4776 238.87746q-5.390625 0 -9.95311 -1.78125q-4.546875 -1.796875 -7.890625 -5.0625q-3.34375 -3.28125 -5.234375 -7.671875q-1.890625 -4.390625 -1.890625 -9.65625q0 -5.265625 1.890625 -9.640625q1.890625 -4.390625 5.265625 -7.65625q3.375 -3.28125 7.921875 -5.0625q4.5624847 -1.796875 9.968735 -1.796875q5.46875 0 10.078125 1.859375q4.625 1.859375 7.875 5.5l-4.390625 4.25q-2.703125 -2.828125 -6.078125 -4.203125q-3.375 -1.390625 -7.21875 -1.390625q-3.984375 0 -7.390625 1.34375q-3.4062347 1.34375 -5.9062347 3.78125q-2.5 2.421875 -3.890625 5.765625q-1.375 3.34375 -1.375 7.25q0 3.921875 1.375 7.265625q1.390625 3.328125 3.890625 5.765625q2.5 2.421875 5.9062347 3.78125q3.40625 1.34375 7.390625 1.34375q3.84375 0 7.21875 -1.375q3.375 -1.390625 6.078125 -4.296875l4.390625 4.25q-3.25 3.65625 -7.875 5.546875q-4.609375 1.890625 -10.15625 1.890625z" fill-rule="nonzero"/><path fill="#fea3a3" d="m263.63968 218.99101l0 0c-2.333191 -2.3332062 -2.3349 -6.1177826 -0.0037841797 -8.453079l80.27579 -80.420044c1.1194458 -1.1214447 2.6381226 -1.7518768 4.2219543 -1.7525787c1.5838623 -7.171631E-4 3.1030884 0.6283417 4.2235413 1.7487946l0 0l0 0c2.3332214 2.3332062 2.3349 6.1177673 0.0037841797 8.453064l-80.27579 80.42006c-2.3311157 2.3352966 -6.112274 2.3369904 -8.445496 0.0037841797z" fill-rule="evenodd"/><path fill="#000000" fill-opacity="0.0" d="m129.61533 311.74277l689.1654 0l0 84.031525l-689.1654 0z" fill-rule="evenodd"/><path fill="#4b5273" d="m189.23611 373.59915q-4.328125 0 -8.03125 -1.40625q-3.703125 -1.421875 -6.421875 -4.03125q-2.71875 -2.609375 -4.25 -6.125q-1.515625 -3.53125 -1.515625 -7.75q0 -4.203125 1.515625 -7.71875q1.53125 -3.53125 4.265625 -6.140625q2.75 -2.609375 6.421875 -4.015625q3.6875 -1.421875 8.0625 -1.421875q4.859375 0 8.765625 1.6875q3.921875 1.671875 6.59375 4.921875l-5.546875 5.125q-1.921875 -2.1875 -4.265625 -3.28125q-2.34375 -1.09375 -5.125 -1.09375q-2.609375 0 -4.796875 0.859375q-2.1875 0.84375 -3.796875 2.453125q-1.59375 1.59375 -2.46875 3.78125q-0.875 2.1875 -0.875 4.84375q0 2.671875 0.875 4.859375q0.875 2.1875 2.46875 3.796875q1.609375 1.59375 3.796875 2.453125q2.1875 0.84375 4.796875 0.84375q2.78125 0 5.125 -1.09375q2.34375 -1.09375 4.265625 -3.328125l5.546875 5.109375q-2.671875 3.265625 -6.59375 4.96875q-3.90625 1.703125 -8.8125 1.703125z" fill-rule="nonzero"/><path fill="#fea3a3" d="m208.79874 372.95853l0 -24.265625l9.953125 0q4.859375 0 7.609375 2.296875q2.75 2.28125 2.75 6.34375q0 2.65625 -1.25 4.59375q-1.234375 1.921875 -3.546875 2.953125q-2.296875 1.015625 -5.53125 1.015625l-7.484375 0l2.015625 -2.046875l0 9.109375l-4.515625 0zm15.875 0l-6.125 -8.796875l4.8125 0l6.171875 8.796875l-4.859375 0zm-11.359375 -8.625l-2.015625 -2.15625l7.28125 0q2.984375 0 4.484375 -1.28125q1.515625 -1.28125 1.515625 -3.5625q0 -2.328125 -1.515625 -3.578125q-1.5 -1.25 -4.484375 -1.25l-7.28125 0l2.015625 -2.21875l0 14.046875zm26.4402 8.625l0 -9.59375l1.0 2.765625l-10.53125 -17.4375l4.8125 0l8.46875 14.046875l-2.703125 0l8.515625 -14.046875l4.4375 0l-10.53125 17.4375l1.03125 -2.765625l0 9.59375l-4.5 0zm16.45372 0l0 -24.265625l9.984375 0q3.234375 0 5.53125 1.046875q2.3125 1.03125 3.546875 2.984375q1.25 1.9375 1.25 4.609375q0 2.65625 -1.25 4.609375q-1.234375 1.9375 -3.546875 2.984375q-2.296875 1.03125 -5.53125 1.03125l-7.484375 0l2.015625 -2.109375l0 9.109375l-4.515625 0zm4.515625 -8.625l-2.015625 -2.1875l7.28125 0q2.984375 0 4.484375 -1.265625q1.515625 -1.265625 1.515625 -3.546875q0 -2.328125 -1.515625 -3.578125q-1.5 -1.25 -4.484375 -1.25l-7.28125 0l2.015625 -2.21875l0 14.046875zm24.180054 8.625l0 -20.453125l-8.03125 0l0 -3.8125l20.578125 0l0 3.8125l-8.03125 0l0 20.453125l-4.515625 0zm26.969543 0.34375q-2.84375 0 -5.234375 -0.9375q-2.390625 -0.9375 -4.15625 -2.609375q-1.765625 -1.6875 -2.734375 -3.953125q-0.96875 -2.265625 -0.96875 -4.96875q0 -2.703125 0.96875 -4.96875q0.96875 -2.28125 2.734375 -3.953125q1.765625 -1.6875 4.15625 -2.625q2.390625 -0.9375 5.203125 -0.9375q2.84375 0 5.21875 0.9375q2.375 0.9375 4.140625 2.625q1.765625 1.671875 2.734375 3.953125q0.96875 2.265625 0.96875 4.96875q0 2.703125 -0.96875 4.984375q-0.96875 2.28125 -2.734375 3.953125q-1.765625 1.65625 -4.140625 2.59375q-2.375 0.9375 -5.1875 0.9375zm-0.03125 -3.953125q1.828125 0 3.390625 -0.625q1.5625 -0.625 2.703125 -1.78125q1.140625 -1.15625 1.78125 -2.703125q0.640625 -1.546875 0.640625 -3.40625q0 -1.875 -0.640625 -3.40625q-0.640625 -1.546875 -1.78125 -2.703125q-1.140625 -1.171875 -2.703125 -1.796875q-1.5625 -0.625 -3.390625 -0.625q-1.84375 0 -3.390625 0.625q-1.53125 0.625 -2.703125 1.796875q-1.15625 1.15625 -1.796875 2.703125q-0.640625 1.53125 -0.640625 3.40625q0 1.828125 0.640625 3.390625q0.640625 1.5625 1.78125 2.71875q1.15625 1.15625 2.703125 1.78125q1.5625 0.625 3.40625 0.625z" fill-rule="nonzero"/><path fill="#4b5273" d="m372.54532 372.95853l0 -30.296875l-11.9375 0l0 -7.03125l32.53125 0l0 7.03125l-11.953125 0l0 30.296875l-8.640625 0z" fill-rule="nonzero"/><path fill="#fea3a3" d="m396.5958 372.95853l0 -24.265625l9.953125 0q4.859375 0 7.609375 2.296875q2.75 2.28125 2.75 6.34375q0 2.65625 -1.25 4.59375q-1.234375 1.921875 -3.546875 2.953125q-2.296875 1.015625 -5.53125 1.015625l-7.484375 0l2.015625 -2.046875l0 9.109375l-4.515625 0zm15.875 0l-6.125 -8.796875l4.8125 0l6.171875 8.796875l-4.859375 0zm-11.359375 -8.625l-2.015625 -2.15625l7.28125 0q2.984375 0 4.484375 -1.28125q1.515625 -1.28125 1.515625 -3.5625q0 -2.328125 -1.515625 -3.578125q-1.5 -1.25 -4.484375 -1.25l-7.28125 0l2.015625 -2.21875l0 14.046875zm20.818115 8.625l0 -24.265625l17.71875 0l0 3.78125l-13.203125 0l0 16.703125l13.6875 0l0 3.78125l-18.203125 0zm4.171875 -10.46875l0 -3.703125l12.0625 0l0 3.703125l-12.0625 0zm15.625977 10.46875l10.921875 -24.265625l4.421875 0l10.953125 24.265625l-4.703125 0l-9.390625 -21.875l1.796875 0l-9.359375 21.875l-4.640625 0zm5.03125 -5.609375l1.203125 -3.546875l13.109375 0l1.203125 3.546875l-15.515625 0zm31.879425 5.953125q-2.84375 0 -5.453125 -0.8125q-2.59375 -0.8125 -4.109375 -2.09375l1.546875 -3.5q1.46875 1.140625 3.609375 1.90625q2.15625 0.765625 4.40625 0.765625q1.90625 0 3.078125 -0.421875q1.1875 -0.421875 1.734375 -1.125q0.5625 -0.71875 0.5625 -1.609375q0 -1.109375 -0.796875 -1.78125q-0.796875 -0.6875 -2.0625 -1.078125q-1.265625 -0.40625 -2.8125 -0.75q-1.546875 -0.34375 -3.09375 -0.8125q-1.53125 -0.46875 -2.796875 -1.203125q-1.265625 -0.75 -2.0625 -2.0q-0.796875 -1.25 -0.796875 -3.1875q0 -1.984375 1.046875 -3.625q1.0625 -1.640625 3.21875 -2.625q2.171875 -1.0 5.5 -1.0q2.1875 0 4.328125 0.5625q2.15625 0.546875 3.75 1.59375l-1.421875 3.5q-1.625 -0.96875 -3.359375 -1.4375q-1.734375 -0.46875 -3.328125 -0.46875q-1.875 0 -3.03125 0.453125q-1.15625 0.4375 -1.703125 1.171875q-0.53125 0.734375 -0.53125 1.65625q0 1.109375 0.78125 1.796875q0.78125 0.671875 2.046875 1.0625q1.265625 0.375 2.8125 0.734375q1.5625 0.359375 3.109375 0.8125q1.546875 0.453125 2.8125 1.1875q1.265625 0.71875 2.03125 1.96875q0.78125 1.25 0.78125 3.15625q0 1.9375 -1.0625 3.59375q-1.046875 1.640625 -3.234375 2.625q-2.171875 0.984375 -5.5 0.984375zm24.705048 0q-4.984375 0 -7.8125 -2.796875q-2.828125 -2.8125 -2.828125 -8.109375l0 -13.703125l4.515625 0l0 13.515625q0 3.75 1.609375 5.453125q1.609375 1.6875 4.546875 1.6875q2.953125 0 4.546875 -1.6875q1.59375 -1.703125 1.59375 -5.453125l0 -13.515625l4.4375305 0l0 13.703125q0 5.296875 -2.8281555 8.109375q-2.828125 2.796875 -7.78125 2.796875zm16.906342 -0.34375l0 -24.265625l9.953125 0q4.859375 0 7.609375 2.296875q2.75 2.28125 2.75 6.34375q0 2.65625 -1.25 4.59375q-1.234375 1.921875 -3.546875 2.953125q-2.296875 1.015625 -5.53125 1.015625l-7.484375 0l2.015625 -2.046875l0 9.109375l-4.515625 0zm15.875 0l-6.125 -8.796875l4.8125 0l6.171875 8.796875l-4.859375 0zm-11.359375 -8.625l-2.015625 -2.15625l7.28125 0q2.984375 0 4.484375 -1.28125q1.515625 -1.28125 1.515625 -3.5625q0 -2.328125 -1.515625 -3.578125q-1.5 -1.25 -4.484375 -1.25l-7.28125 0l2.015625 -2.21875l0 14.046875zm26.440186 8.625l0 -9.59375l1.0 2.765625l-10.53125 -17.4375l4.8125 0l8.46875 14.046875l-2.703125 0l8.515625 -14.046875l4.4375 0l-10.53125 17.4375l1.03125 -2.765625l0 9.59375l-4.5 0z" fill-rule="nonzero"/><path fill="#4b5273" d="m611.01056 372.95853l0 -30.296875l-11.9375 0l0 -7.03125l32.53125 0l0 7.03125l-11.953125 0l0 30.296875l-8.640625 0z" fill-rule="nonzero"/><path fill="#fea3a3" d="m635.06104 372.95853l0 -24.265625l9.953125 0q4.859375 0 7.609375 2.296875q2.75 2.28125 2.75 6.34375q0 2.65625 -1.25 4.59375q-1.234375 1.921875 -3.546875 2.953125q-2.296875 1.015625 -5.53125 1.015625l-7.484375 0l2.015625 -2.046875l0 9.109375l-4.515625 0zm15.875 0l-6.125 -8.796875l4.8125 0l6.171875 8.796875l-4.859375 0zm-11.359375 -8.625l-2.015625 -2.15625l7.28125 0q2.984375 0 4.484375 -1.28125q1.515625 -1.28125 1.515625 -3.5625q0 -2.328125 -1.515625 -3.578125q-1.5 -1.25 -4.484375 -1.25l-7.28125 0l2.015625 -2.21875l0 14.046875zm17.39624 8.625l10.921875 -24.265625l4.421875 0l10.953125 24.265625l-4.703125 0l-9.390625 -21.875l1.796875 0l-9.359375 21.875l-4.640625 0zm5.03125 -5.609375l1.203125 -3.546875l13.109375 0l1.203125 3.546875l-15.515625 0zm35.2359 5.953125q-2.765625 0 -5.140625 -0.90625q-2.375 -0.921875 -4.125 -2.609375q-1.75 -1.6875 -2.71875 -3.96875q-0.96875 -2.28125 -0.96875 -4.984375q0 -2.703125 0.96875 -4.984375q0.96875 -2.296875 2.734375 -3.96875q1.765625 -1.6875 4.125 -2.609375q2.359375 -0.921875 5.15625 -0.921875q2.984375 0 5.4375 1.03125q2.46875 1.015625 4.171875 3.03125l-2.921875 2.734375q-1.3125 -1.421875 -2.9375 -2.125q-1.625 -0.71875 -3.53125 -0.71875q-1.90625 0 -3.484375 0.625q-1.578125 0.625 -2.75 1.765625q-1.15625 1.140625 -1.796875 2.703125q-0.640625 1.5625 -0.640625 3.4375q0 1.859375 0.640625 3.421875q0.640625 1.5625 1.796875 2.703125q1.171875 1.140625 2.75 1.765625q1.578125 0.625 3.484375 0.625q1.90625 0 3.53125 -0.703125q1.625 -0.71875 2.9375 -2.171875l2.921875 2.78125q-1.703125 1.96875 -4.171875 3.015625q-2.453125 1.03125 -5.46875 1.03125zm17.680115 -6.0625l-0.25 -5.34375l12.71875 -13.203125l5.0625 0l-10.5625 11.234375l-2.5 2.734375l-4.46875 4.578125zm-4.03125 5.71875l0 -24.265625l4.515625 0l0 24.265625l-4.515625 0zm16.921875 0l-9.296875 -11.0625l2.984375 -3.28125l11.578125 14.34375l-5.265625 0zm8.342529 0l0 -24.265625l17.71875 0l0 3.78125l-13.203125 0l0 16.703125l13.6875 0l0 3.78125l-18.203125 0zm4.171875 -10.46875l0 -3.703125l12.0625 0l0 3.703125l-12.0625 0zm19.047852 10.46875l0 -24.265625l9.953125 0q4.859375 0 7.609375 2.296875q2.75 2.28125 2.75 6.34375q0 2.65625 -1.25 4.59375q-1.234375 1.921875 -3.546875 2.953125q-2.296875 1.015625 -5.53125 1.015625l-7.484375 0l2.015625 -2.046875l0 9.109375l-4.515625 0zm15.875 0l-6.125 -8.796875l4.8125 0l6.171875 8.796875l-4.859375 0zm-11.359375 -8.625l-2.015625 -2.15625l7.28125 0q2.984375 0 4.484375 -1.28125q1.515625 -1.28125 1.515625 -3.5625q0 -2.328125 -1.515625 -3.578125q-1.5 -1.25 -4.484375 -1.25l-7.28125 0l2.015625 -2.21875l0 14.046875z" fill-rule="nonzero"/></g></svg>