<svg version="1.1" viewBox="150 100 650 230" fill="none" stroke="none" stroke-linecap="square" stroke-miterlimit="10" xmlns:xlink="http://www.w3.org/1999/xlink" xmlns="http://www.w3.org/2000/svg"><clipPath id="g371b26854c9_0_462.0"><path d="m0 0l960.0 0l0 540.0l-960.0 0l0 -540.0z" clip-rule="nonzero"/></clipPath><g clip-path="url(#g371b26854c9_0_462.0)"><path fill="#ffffff" d="m0 0l960.0 0l0 540.0l-960.0 0z" fill-rule="evenodd"/><path fill="#000000" fill-opacity="0.0" d="m135.41235 38.744476l689.1747 0l0 351.68155l-689.1747 0z" fill-rule="evenodd"/><path fill="#4b5273" d="m263.78735 304.4659q-19.96875 0 -36.828125 -6.609375q-16.859375 -6.625 -29.21875 -18.734375q-12.359375 -12.109375 -19.359375 -28.34375q-6.984375 -16.234375 -6.984375 -35.703125q0 -19.484375 6.984375 -35.703125q7.0 -16.234375 19.484375 -28.34375q12.484375 -12.125 29.34375 -18.734375q16.859375 -6.625 36.828125 -6.625q20.234375 0 37.328125 6.875q17.109375 6.859375 29.09375 20.34375l-16.234375 15.734375q-9.984375 -10.484375 -22.46875 -15.59375q-12.484375 -5.125 -26.71875 -5.125q-14.734375 0 -27.34375 5.0q-12.609375 4.984375 -21.859375 13.984375q-9.234375 8.984375 -14.359375 21.34375q-5.109375 12.359375 -5.109375 26.84375q0 14.484375 5.109375 26.84375q5.125 12.359375 14.359375 21.34375q9.25 8.984375 21.859375 13.984375q12.609375 5.0 27.34375 5.0q14.234375 0 26.71875 -5.125q12.484375 -5.125 22.46875 -15.859375l16.234375 15.734375q-11.984375 13.484375 -29.09375 20.484375q-17.09375 6.984375 -37.578125 6.984375z" fill-rule="nonzero"/><path fill="#4b5273" d="m459.81042 302.4659l0 -141.82812l-55.9375 0l0 -32.96875l152.3125 0l0 32.96875l-55.921875 0l0 141.82812l-40.453125 0z" fill-rule="nonzero"/><path fill="#4b5273" d="m681.2972 302.4659l0 -141.82812l-55.9375 0l0 -32.96875l152.3125 0l0 32.96875l-55.921875 0l0 141.82812l-40.453125 0z" fill-rule="nonzero"/><path fill="#000000" fill-opacity="0.0" d="m183.00946 105.44794l196.80457 0l0 217.84808l-196.80457 0z" fill-rule="evenodd"/><path fill="#fea3a3" d="m265.19696 263.80713q-10.859375 0 -20.125 -3.6875q-9.25 -3.703125 -16.078125 -10.375q-6.8125 -6.6875 -10.578125 -15.65625q-3.75 -8.984375 -3.75 -19.71875q0 -10.71875 3.75 -19.6875q3.765625 -8.984375 10.65625 -15.65625q6.890625 -6.6875 16.078125 -10.375q9.1875 -3.703125 20.046875 -3.703125q10.3125 0 19.28125 3.34375q8.984375 3.34375 15.390625 10.171875l-4.453125 4.59375q-6.265625 -6.125 -13.859375 -8.84375q-7.578125 -2.71875 -16.078125 -2.71875q-9.328125 0 -17.328125 3.203125q-8.0 3.203125 -13.921875 9.0625q-5.921875 5.84375 -9.203125 13.640625q-3.265625 7.78125 -3.265625 16.96875q0 9.203125 3.265625 17.0q3.28125 7.78125 9.203125 13.640625q5.921875 5.84375 13.921875 9.046875q8.0 3.203125 17.328125 3.203125q8.5 0 16.078125 -2.71875q7.59375 -2.71875 13.859375 -8.984375l4.453125 4.59375q-6.40625 6.828125 -15.390625 10.25q-8.96875 3.40625 -19.28125 3.40625z" fill-rule="nonzero"/><path fill="#000000" fill-opacity="0.0" d="m213.27449 149.54095l99.55809 0l0 130.88422l-99.55809 0z" fill-rule="evenodd"/><path fill="#fea3a3" d="m265.4776 238.87746q-5.390625 0 -9.95311 -1.78125q-4.546875 -1.796875 -7.890625 -5.0625q-3.34375 -3.28125 -5.234375 -7.671875q-1.890625 -4.390625 -1.890625 -9.65625q0 -5.265625 1.890625 -9.640625q1.890625 -4.390625 5.265625 -7.65625q3.375 -3.28125 7.921875 -5.0625q4.5624847 -1.796875 9.968735 -1.796875q5.46875 0 10.078125 1.859375q4.625 1.859375 7.875 5.5l-4.390625 4.25q-2.703125 -2.828125 -6.078125 -4.203125q-3.375 -1.390625 -7.21875 -1.390625q-3.984375 0 -7.390625 1.34375q-3.4062347 1.34375 -5.9062347 3.78125q-2.5 2.421875 -3.890625 5.765625q-1.375 3.34375 -1.375 7.25q0 3.921875 1.375 7.265625q1.390625 3.328125 3.890625 5.765625q2.5 2.421875 5.9062347 3.78125q3.40625 1.34375 7.390625 1.34375q3.84375 0 7.21875 -1.375q3.375 -1.390625 6.078125 -4.296875l4.390625 4.25q-3.25 3.65625 -7.875 5.546875q-4.609375 1.890625 -10.15625 1.890625z" fill-rule="nonzero"/><path fill="#fea3a3" d="m263.63968 218.99101l0 0c-2.333191 -2.3332062 -2.3349 -6.1177826 -0.0037841797 -8.453079l80.27579 -80.420044c1.1194458 -1.1214447 2.6381226 -1.7518768 4.2219543 -1.7525787c1.5838623 -7.171631E-4 3.1030884 0.6283417 4.2235413 1.7487946l0 0l0 0c2.3332214 2.3332062 2.3349 6.1177673 0.0037841797 8.453064l-80.27579 80.42006c-2.3311157 2.3352966 -6.112274 2.3369904 -8.445496 0.0037841797z" fill-rule="evenodd"/></g></svg>