<svg version="1.1" viewBox="140.0 150.0 670.0 310.0" fill="none" stroke="none" stroke-linecap="square" stroke-miterlimit="10" xmlns:xlink="http://www.w3.org/1999/xlink" xmlns="http://www.w3.org/2000/svg"><clipPath id="g371b26854c9_0_650.0"><path d="m0 0l960.0 0l0 540.0l-960.0 0l0 -540.0z" clip-rule="nonzero"/></clipPath><g clip-path="url(#g371b26854c9_0_650.0)"><path fill="#ffffff" d="m0 0l960.0 0l0 540.0l-960.0 0z" fill-rule="evenodd"/><path fill="#000000" fill-opacity="0.0" d="m135.41235 86.15917l689.1747 0l0 351.68155l-689.1747 0z" fill-rule="evenodd"/><path fill="#3a4059" d="m263.78735 351.3806q-19.71875 0 -36.453125 -6.609375q-16.734375 -6.625 -28.96875 -18.609375q-12.234375 -11.984375 -19.109375 -28.21875q-6.859375 -16.234375 -6.859375 -35.453125q0 -19.234375 6.859375 -35.453125q6.875 -16.234375 19.234375 -28.21875q12.359375 -12.0 29.09375 -18.609375q16.734375 -6.625 36.453125 -6.625q18.984375 0 35.703125 6.375q16.734375 6.359375 28.21875 19.09375l-11.734375 11.75q-10.734375 -11.0 -23.71875 -15.859375q-12.984375 -4.875 -27.96875 -4.875q-15.734375 0 -29.21875 5.375q-13.484375 5.359375 -23.46875 15.234375q-9.984375 9.859375 -15.609375 22.96875q-5.609375 13.109375 -5.609375 28.84375q0 15.71875 5.609375 28.828125q5.625 13.109375 15.609375 22.984375q9.984375 9.859375 23.46875 15.234375q13.484375 5.359375 29.21875 5.359375q14.984375 0 27.96875 -4.984375q12.984375 -5.0 23.71875 -15.984375l11.734375 11.734375q-11.484375 12.734375 -28.21875 19.234375q-16.71875 6.484375 -35.953125 6.484375z" fill-rule="nonzero"/><path fill="#3a4059" d="m466.05542 349.8806l0 -147.32812l-57.9375 0l0 -27.46875l148.32812 0l0 27.46875l-57.9375 0l0 147.32812l-32.453125 0zm219.23938 0l0 -147.32812l-57.9375 0l0 -27.46875l148.32812 0l0 27.46875l-57.9375 0l0 147.32812l-32.453125 0z" fill-rule="nonzero"/><path fill="#000000" fill-opacity="0.0" d="m173.62111 140.75732l196.80458 0l0 243.6742l-196.80458 0z" fill-rule="evenodd"/><path fill="#3a4059" d="m264.73047 320.17465q-12.843735 0 -23.687485 -4.25q-10.828125 -4.25 -18.78125 -12.03125q-7.9375 -7.796875 -12.4375 -18.234375q-4.5 -10.4375 -4.5 -22.953125q0 -12.53125 4.5 -22.953125q4.5 -10.4375 12.515625 -18.21875q8.03125 -7.796875 18.859375 -12.046875q10.84375 -4.265625 23.687485 -4.265625q13.0 0 24.0 4.421875q11.0 4.40625 18.703125 13.078125l-10.4375 10.125q-6.421875 -6.75 -14.453125 -10.03125q-8.015625 -3.296875 -17.171875 -3.296875q-9.46875 0 -17.57811 3.21875q-8.109375 3.203125 -14.046875 8.984375q-5.9375 5.78125 -9.234375 13.734375q-3.28125 7.9375 -3.28125 17.25q0 9.3125 3.28125 17.265625q3.296875 7.9375 9.234375 13.71875q5.9375 5.78125 14.046875 9.0q8.10936 3.203125 17.57811 3.203125q9.15625 0 17.171875 -3.296875q8.03125 -3.296875 14.453125 -10.1875l10.4375 10.109375q-7.703125 8.671875 -18.703125 13.171875q-11.0 4.484375 -24.15625 4.484375z" fill-rule="nonzero"/><path fill="#000000" fill-opacity="0.0" d="m208.63089 190.07109l99.558105 0l0 146.02916l-99.558105 0z" fill-rule="evenodd"/><path fill="#ff9393" d="m266.0684 291.66797q-6.390625 0 -11.875 -2.109375q-5.484375 -2.125 -9.53125 -6.0q-4.03125 -3.890625 -6.28125 -9.171875q-2.234375 -5.28125 -2.234375 -11.515625q0 -6.234375 2.234375 -11.51564q2.25 -5.28125 6.328125 -9.15625q4.078125 -3.890625 9.515625 -6.0q5.453125 -2.125 11.921875 -2.125q6.890625 0 12.5625 2.359375q5.6875 2.359375 9.609375 7.0l-6.734375 6.3125q-3.03125 -3.28125 -6.796875 -4.921875q-3.75 -1.640625 -8.15625 -1.640625q-4.40625 0 -8.046875 1.453125q-3.640625 1.4375 -6.328125 4.078125q-2.671875 2.640625 -4.15625 6.25q-1.46875 3.5937653 -1.46875 7.9062653q0 4.3125 1.46875 7.921875q1.484375 3.59375 4.15625 6.234375q2.6875 2.640625 6.328125 4.09375q3.640625 1.4375 8.046875 1.4375q4.40625 0 8.15625 -1.640625q3.765625 -1.640625 6.796875 -5.0l6.734375 6.390625q-3.921875 4.5625 -9.609375 6.96875q-5.671875 2.390625 -12.640625 2.390625z" fill-rule="nonzero"/><path fill="#3a4059" d="m288.8058 300.95163l9.039368 -8.598419l31.307068 32.724396l-9.039368 8.59845z" fill-rule="evenodd"/><path fill="#000000" fill-opacity="0.0" d="m128.87479 369.8084l689.1654 0l0 84.031494l-689.1654 0z" fill-rule="evenodd"/><path fill="#3a4059" d="m196.77905 431.5554q-5.609375 0 -9.828125 -2.28125q-4.203125 -2.296875 -6.53125 -6.21875q-2.3125 -3.921875 -2.3125 -8.890625q0 -3.984375 1.59375 -7.390625q1.609375 -3.421875 4.359375 -6.0q2.75 -2.59375 6.265625 -4.03125q3.515625 -1.453125 7.296875 -1.453125q2.78125 0 4.671875 0.359375q1.890625 0.34375 3.359375 0.90625q1.46875 0.546875 3.015625 1.296875l0.578125 9.96875l-0.953125 0l-5.0625 -8.265625q-1.34375 -0.84375 -2.515625 -1.21875q-1.171875 -0.375 -2.828125 -0.375q-3.25 0 -5.84375 1.953125q-2.578125 1.9375 -4.078125 5.46875q-1.484375 3.515625 -1.484375 8.25q0 4.703125 1.4375 8.0625q1.4375 3.359375 3.921875 5.203125q2.484375 1.828125 5.578125 1.828125q2.015625 0 3.5625 -0.5q1.546875 -0.515625 3.0 -1.3125l4.796875 -7.140625l0.90625 0l-0.75 9.015625q-2.1875 1.28125 -5.25 2.03125q-3.0625 0.734375 -6.90625 0.734375z" fill-rule="nonzero"/><path fill="#3a4059" d="m215.6484 431.02414l0 -0.59375l3.03125 -1.5l0 -20.453125l-3.03125 -1.5l0 -0.59375l10.375 0q3.921875 0 6.171875 1.625q2.265625 1.625 2.265625 4.46875q0 2.078125 -1.421875 3.703125q-1.40625 1.625 -3.71875 2.453125l7.046875 10.40625l2.5 1.390625l0 0.59375l-6.0 0l-7.140625 -11.34375l-3.125 0l0 9.21875l2.796875 1.53125l0 0.59375l-9.75 0zm9.15625 -22.578125l-2.203125 0l0 9.25l2.421875 0q2.3125 0 3.828125 -1.3125q1.515625 -1.328125 1.515625 -3.390625q0 -2.125 -1.484375 -3.328125q-1.46875 -1.21875 -4.078125 -1.21875zm21.166855 22.578125l0 -0.59375l3.359375 -1.5l0 -9.40625l-8.25 -11.265625l-2.359375 -1.28125l0 -0.59375l9.625 0l0 0.59375l-2.71875 1.34375l0 0.15625l6.640625 8.953125l5.9374847 -8.921875l0 -0.140625l-2.7656097 -1.390625l0 -0.59375l8.062485 0l0 0.59375l-2.390625 1.234375l-7.9062347 11.28125l0 9.4375l3.3593597 1.5l0 0.59375l-10.593735 0zm20.965744 0l0 -0.59375l3.03125 -1.5l0 -20.453125l-3.03125 -1.5l0 -0.59375l10.453125 0q4.40625 0 7.078125 1.609375q2.671875 1.609375 2.671875 5.078125q0 2.046875 -1.390625 3.640625q-1.375 1.578125 -3.78125 2.5q-2.40625 0.90625 -5.46875 0.90625l-2.609375 0l0 8.8125l3.421875 1.5l0 0.59375l-10.375 0zm9.53125 -22.578125l-2.578125 0l0 9.703125l2.828125 0q2.953125 0 4.625 -1.34375q1.6875 -1.34375 1.6875 -3.4375q0 -2.609375 -1.703125 -3.765625q-1.6875 -1.15625 -4.859375 -1.15625zm19.444794 22.578125l0 -0.59375l3.765625 -1.5l0 -20.484375l-5.890625 0l-2.65625 5.625l-0.59375 0l0 -7.6875l22.171875 0l0 7.6875l-0.59375 0l-2.625 -5.625l-5.9375 0l0 20.484375l3.8125 1.5l0 0.59375l-11.453125 0zm33.367584 0.375q-2.6875 0 -4.984375 -0.953125q-2.296875 -0.953125 -4.0 -2.640625q-1.6875 -1.703125 -2.625 -4.03125q-0.9375 -2.34375 -0.9375 -5.0625q0 -2.765625 0.9375 -5.078125q0.9375 -2.3125 2.625 -4.015625q1.703125 -1.703125 4.0 -2.65625q2.296875 -0.953125 4.984375 -0.953125q2.6875 0 4.984375 0.953125q2.296875 0.953125 3.984375 2.65625q1.703125 1.703125 2.65625 4.015625q0.953125 2.3125 0.953125 5.078125q0 2.71875 -0.953125 5.0625q-0.953125 2.328125 -2.65625 4.03125q-1.6875 1.6875 -3.984375 2.640625q-2.296875 0.953125 -4.984375 0.953125zm0.75 -1.875q2.28125 0 3.984375 -1.1875q1.71875 -1.1875 2.6875 -3.359375q0.984375 -2.171875 0.984375 -5.109375q0 -3.65625 -1.203125 -6.34375q-1.1875 -2.6875 -3.25 -4.1875q-2.046875 -1.5 -4.546875 -1.5q-2.28125 0 -4.046875 1.203125q-1.75 1.1875 -2.734375 3.34375q-0.984375 2.140625 -0.984375 5.09375q0 3.65625 1.203125 6.34375q1.21875 2.6875 3.28125 4.203125q2.078125 1.5 4.625 1.5z" fill-rule="nonzero"/><path fill="#3a4059" d="m361.30234 431.02414l0 -0.859375l5.65625 -2.1875l0 -29.21875l-7.625 0l-4.28125 8.796875l-0.84375 0l0 -11.734375l33.546875 0l0 11.734375l-0.859375 0l-4.265625 -8.796875l-7.625 0l0 29.21875l5.65625 2.1875l0 0.859375l-19.359375 0z" fill-rule="nonzero"/><path fill="#3a4059" d="m391.90405 431.02414l0 -0.59375l3.03125 -1.5l0 -20.453125l-3.03125 -1.5l0 -0.59375l10.375 0q3.921875 0 6.171875 1.625q2.265625 1.625 2.265625 4.46875q0 2.078125 -1.421875 3.703125q-1.40625 1.625 -3.71875 2.453125l7.046875 10.40625l2.5 1.390625l0 0.59375l-6.0 0l-7.140625 -11.34375l-3.125 0l0 9.21875l2.796875 1.53125l0 0.59375l-9.75 0zm9.15625 -22.578125l-2.203125 0l0 9.25l2.421875 0q2.3125 0 3.828125 -1.3125q1.515625 -1.328125 1.515625 -3.390625q0 -2.125 -1.484375 -3.328125q-1.46875 -1.21875 -4.078125 -1.21875zm16.11496 22.578125l0 -0.59375l3.03125 -1.5l0 -20.453125l-3.03125 -1.5l0 -0.59375l18.75 0l0 6.421875l-0.609375 0l-2.421875 -4.359375l-8.765625 0l0 8.84375l6.1875 0l1.90625 -3.140625l0.59375 0l0 8.25l-0.59375 0l-1.90625 -3.0625l-6.1875 0l0 9.640625l9.78125 0l2.453125 -4.9375l0.609375 0l0 6.984375l-19.796875 0zm23.48996 0l0 -0.59375l2.34375 -1.265625l9.59375 -22.96875l2.0625 0l9.46875 22.890625l2.5 1.34375l0 0.59375l-9.84375 0l0 -0.59375l3.28125 -1.265625l-2.71875 -6.765625l-9.046875 0l-2.71875 6.765625l3.140625 1.265625l0 0.59375l-8.0625 0zm8.46875 -10.671875l7.359375 0l-3.671875 -9.078125l-3.6875 9.078125zm28.548279 11.046875q-2.34375 0 -4.015625 -0.4375q-1.65625 -0.453125 -3.40625 -1.3125l-0.375 -6.171875l0.59375 0l2.015625 4.078125q2.46875 2.046875 5.078125 2.046875q2.171875 0 3.421875 -1.09375q1.25 -1.109375 1.25 -3.078125q0 -1.53125 -0.6875 -2.4375q-0.6875 -0.921875 -2.0625 -1.65625q-1.359375 -0.734375 -3.328125 -1.703125q-1.765625 -0.8125 -3.0 -1.703125q-1.21875 -0.90625 -1.859375 -2.0625q-0.640625 -1.15625 -0.640625 -2.84375q0 -1.34375 0.65625 -2.59375q0.65625 -1.25 1.765625 -2.234375q1.125 -0.984375 2.5 -1.578125q1.390625 -0.609375 2.890625 -0.609375q1.75 0 3.28125 0.421875q1.53125 0.40625 3.015625 1.1875l0.375 5.96875l-0.59375 0l-1.9375 -3.984375q-1.203125 -0.9375 -2.171875 -1.34375q-0.96875 -0.421875 -2.203125 -0.421875q-1.640625 0 -2.6875 1.09375q-1.046875 1.078125 -1.046875 2.71875q0 1.828125 1.15625 2.859375q1.171875 1.03125 3.671875 2.25q2.265625 1.09375 3.71875 2.078125q1.46875 0.984375 2.171875 2.21875q0.703125 1.234375 0.703125 3.140625q0 1.75 -0.75 3.09375q-0.734375 1.34375 -1.96875 2.265625q-1.234375 0.90625 -2.6875 1.375q-1.453125 0.46875 -2.84375 0.46875zm25.53833 0q-2.875 0 -5.140625 -1.046875q-2.25 -1.046875 -3.5625 -3.28125q-1.296875 -2.25 -1.296875 -5.859375l0 -12.734375l-3.03125 -1.5l0 -0.59375l9.96875 0l0 0.59375l-3.015625 1.5l0 12.3125q0 3.109375 0.96875 4.921875q0.96875 1.796875 2.609375 2.59375q1.640625 0.78125 3.703125 0.78125q1.640625 0 3.03125 -0.6875q1.40625 -0.703125 2.234375 -2.25q0.84375 -1.546875 0.84375 -4.046875l0 -13.703125l-3.65625 -1.421875l0 -0.59375l9.296875 0l0 0.59375l-3.015625 1.46875l0 12.765625q0 3.609375 -1.296875 5.859375q-1.28125 2.234375 -3.53125 3.28125q-2.234375 1.046875 -5.109375 1.046875zm17.428589 -0.375l0 -0.59375l3.03125 -1.5l0 -20.453125l-3.03125 -1.5l0 -0.59375l10.375 0q3.921875 0 6.171875 1.625q2.265625 1.625 2.265625 4.46875q0 2.078125 -1.421875 3.703125q-1.40625 1.625 -3.71875 2.453125l7.046875 10.40625l2.5 1.390625l0 0.59375l-6.0 0l-7.140625 -11.34375l-3.125 0l0 9.21875l2.796875 1.53125l0 0.59375l-9.75 0zm9.15625 -22.578125l-2.203125 0l0 9.25l2.421875 0q2.3125 0 3.828125 -1.3125q1.515625 -1.328125 1.515625 -3.390625q0 -2.125 -1.484375 -3.328125q-1.46875 -1.21875 -4.078125 -1.21875zm21.16687 22.578125l0 -0.59375l3.359375 -1.5l0 -9.40625l-8.25 -11.265625l-2.359375 -1.28125l0 -0.59375l9.625 0l0 0.59375l-2.71875 1.34375l0 0.15625l6.640625 8.953125l5.9375 -8.921875l0 -0.140625l-2.765625 -1.390625l0 -0.59375l8.0625 0l0 0.59375l-2.390625 1.234375l-7.90625 11.28125l0 9.4375l3.359375 1.5l0 0.59375l-10.59375 0z" fill-rule="nonzero"/><path fill="#3a4059" d="m586.7193 431.02414l0 -0.859375l5.65625 -2.1875l0 -29.21875l-7.625 0l-4.28125 8.796875l-0.84375 0l0 -11.734375l33.546875 0l0 11.734375l-0.859375 0l-4.265625 -8.796875l-7.625 0l0 29.21875l5.65625 2.1875l0 0.859375l-19.359375 0z" fill-rule="nonzero"/><path fill="#3a4059" d="m617.321 431.02414l0 -0.59375l3.03125 -1.5l0 -20.453125l-3.03125 -1.5l0 -0.59375l10.375 0q3.921875 0 6.171875 1.625q2.265625 1.625 2.265625 4.46875q0 2.078125 -1.421875 3.703125q-1.40625 1.625 -3.71875 2.453125l7.046875 10.40625l2.5 1.390625l0 0.59375l-6.0 0l-7.140625 -11.34375l-3.125 0l0 9.21875l2.796875 1.53125l0 0.59375l-9.75 0zm9.15625 -22.578125l-2.203125 0l0 9.25l2.421875 0q2.3125 0 3.828125 -1.3125q1.515625 -1.328125 1.515625 -3.390625q0 -2.125 -1.484375 -3.328125q-1.46875 -1.21875 -4.078125 -1.21875zm14.781555 22.578125l0 -0.59375l2.34375 -1.265625l9.59375 -22.96875l2.0625 0l9.46875 22.890625l2.5 1.34375l0 0.59375l-9.84375 0l0 -0.59375l3.28125 -1.265625l-2.71875 -6.765625l-9.046875 0l-2.71875 6.765625l3.140625 1.265625l0 0.59375l-8.0625 0zm8.46875 -10.671875l7.359375 0l-3.671875 -9.078125l-3.6875 9.078125zm32.481262 11.046875q-3.84375 0 -6.671875 -1.5625q-2.8125 -1.578125 -4.328125 -4.296875q-1.515625 -2.734375 -1.515625 -6.203125q0 -2.6875 1.046875 -5.09375q1.046875 -2.40625 2.859375 -4.25q1.8125 -1.84375 4.171875 -2.90625q2.375 -1.078125 4.984375 -1.078125q1.90625 0 3.21875 0.25q1.3125 0.234375 2.328125 0.640625q1.03125 0.390625 2.078125 0.90625l0.21875 6.640625l-0.671875 0l-2.53125 -4.84375q-1.3125 -0.90625 -2.34375 -1.3125q-1.015625 -0.40625 -2.296875 -0.40625q-2.609375 0 -4.640625 1.34375q-2.03125 1.34375 -3.21875 3.71875q-1.171875 2.359375 -1.171875 5.46875q0 3.46875 1.140625 5.953125q1.140625 2.46875 3.078125 3.78125q1.9375 1.3125 4.296875 1.3125q1.90625 0 3.21875 -0.515625q1.328125 -0.53125 2.375 -1.203125l2.546875 -4.21875l0.625 0l-0.4375 6.0q-1.640625 0.859375 -3.515625 1.375q-1.859375 0.5 -4.84375 0.5zm14.247864 -0.375l0 -0.59375l3.03125 -1.5l0 -20.453125l-3.03125 -1.5l0 -0.59375l9.96875 0l0 0.59375l-3.015625 1.5l0 20.453125l3.015625 1.5l0 0.59375l-9.96875 0zm6.953125 -12.578125l10.328125 -10.1875l-2.6875 -1.28125l0 -0.59375l8.0625 0l0 0.59375l-2.34375 0.9375l-9.5625 9.328125l11.46875 12.171875l2.390625 1.015625l0 0.59375l-6.09375 0l-11.5625 -12.578125zm20.371155 12.578125l0 -0.59375l3.03125 -1.5l0 -20.453125l-3.03125 -1.5l0 -0.59375l18.75 0l0 6.421875l-0.609375 0l-2.421875 -4.359375l-8.765625 0l0 8.84375l6.1875 0l1.90625 -3.140625l0.59375 0l0 8.25l-0.59375 0l-1.90625 -3.0625l-6.1875 0l0 9.640625l9.78125 0l2.453125 -4.9375l0.609375 0l0 6.984375l-19.796875 0zm24.599304 0l0 -0.59375l3.03125 -1.5l0 -20.453125l-3.03125 -1.5l0 -0.59375l10.375 0q3.921875 0 6.171875 1.625q2.265625 1.625 2.265625 4.46875q0 2.078125 -1.421875 3.703125q-1.40625 1.625 -3.71875 2.453125l7.046875 10.40625l2.5 1.390625l0 0.59375l-6.0 0l-7.140625 -11.34375l-3.125 0l0 9.21875l2.796875 1.53125l0 0.59375l-9.75 0zm9.15625 -22.578125l-2.203125 0l0 9.25l2.421875 0q2.3125 0 3.828125 -1.3125q1.515625 -1.328125 1.515625 -3.390625q0 -2.125 -1.484375 -3.328125q-1.46875 -1.21875 -4.078125 -1.21875z" fill-rule="nonzero"/><path fill="#3a4059" d="m259.22617 270.20737l0 0c-3.4615784 -3.4615784 -3.4650574 -9.077362 -0.0077819824 -12.543213l76.173035 -76.36241c1.6602478 -1.6643524 3.9128113 -2.6002045 6.262207 -2.6016693c2.3493958 -0.001449585 4.6031494 0.93159485 6.265442 2.5939026l0 0l0 0c3.4615784 3.461563 3.4650574 9.077347 0.0077819824 12.543198l-76.173035 76.36241c-3.4572754 3.4658508 -9.066101 3.4693298 -12.527649 0.0077819824z" fill-rule="evenodd"/><path stroke="#ffffff" stroke-width="4.0" stroke-linejoin="round" stroke-linecap="butt" d="m259.22617 270.20737l0 0c-3.4615784 -3.4615784 -3.4650574 -9.077362 -0.0077819824 -12.543213l76.173035 -76.36241c1.6602478 -1.6643524 3.9128113 -2.6002045 6.262207 -2.6016693c2.3493958 -0.001449585 4.6031494 0.93159485 6.265442 2.5939026l0 0l0 0c3.4615784 3.461563 3.4650574 9.077347 0.0077819824 12.543198l-76.173035 76.36241c-3.4572754 3.4658508 -9.066101 3.4693298 -12.527649 0.0077819824z" fill-rule="evenodd"/><path fill="#000000" fill-opacity="0.0" d="m305.73227 373.70944l348.53543 0" fill-rule="evenodd"/><path stroke="#4b5273" stroke-width="2.0" stroke-linejoin="round" stroke-linecap="butt" d="m305.73227 373.70944l348.53543 0" fill-rule="evenodd"/></g></svg>