<svg version="1.1" viewBox="150 155 650 230" fill="none" stroke="none" stroke-linecap="square" stroke-miterlimit="10" xmlns:xlink="http://www.w3.org/1999/xlink" xmlns="http://www.w3.org/2000/svg"><clipPath id="g371b26854c9_0_682.0"><path d="m0 0l960.0 0l0 540.0l-960.0 0l0 -540.0z" clip-rule="nonzero"/></clipPath><g clip-path="url(#g371b26854c9_0_682.0)"><path fill="#ffffff" d="m0 0l960.0 0l0 540.0l-960.0 0z" fill-rule="evenodd"/><path fill="#000000" fill-opacity="0.0" d="m135.41235 94.15917l689.1747 0l0 351.68155l-689.1747 0z" fill-rule="evenodd"/><path fill="#3a4059" d="m263.78735 359.3806q-19.71875 0 -36.453125 -6.609375q-16.734375 -6.625 -28.96875 -18.609375q-12.234375 -11.984375 -19.109375 -28.21875q-6.859375 -16.234375 -6.859375 -35.453125q0 -19.234375 6.859375 -35.453125q6.875 -16.234375 19.234375 -28.21875q12.359375 -12.0 29.09375 -18.609375q16.734375 -6.625 36.453125 -6.625q18.984375 0 35.703125 6.375q16.734375 6.359375 28.21875 19.09375l-11.734375 11.75q-10.734375 -11.0 -23.71875 -15.859375q-12.984375 -4.875 -27.96875 -4.875q-15.734375 0 -29.21875 5.375q-13.484375 5.359375 -23.46875 15.234375q-9.984375 9.859375 -15.609375 22.96875q-5.609375 13.109375 -5.609375 28.84375q0 15.71875 5.609375 28.828125q5.625 13.109375 15.609375 22.984375q9.984375 9.859375 23.46875 15.234375q13.484375 5.359375 29.21875 5.359375q14.984375 0 27.96875 -4.984375q12.984375 -5.0 23.71875 -15.984375l11.734375 11.734375q-11.484375 12.734375 -28.21875 19.234375q-16.71875 6.484375 -35.953125 6.484375z" fill-rule="nonzero"/><path fill="#3a4059" d="m466.05542 357.8806l0 -147.32812l-57.9375 0l0 -27.46875l148.32812 0l0 27.46875l-57.9375 0l0 147.32812l-32.453125 0zm219.23938 0l0 -147.32812l-57.9375 0l0 -27.46875l148.32812 0l0 27.46875l-57.9375 0l0 147.32812l-32.453125 0z" fill-rule="nonzero"/><path fill="#000000" fill-opacity="0.0" d="m173.62111 148.75732l196.80458 0l0 243.6742l-196.80458 0z" fill-rule="evenodd"/><path fill="#3a4059" d="m264.73047 328.17465q-12.843735 0 -23.687485 -4.25q-10.828125 -4.25 -18.78125 -12.03125q-7.9375 -7.796875 -12.4375 -18.234375q-4.5 -10.4375 -4.5 -22.953125q0 -12.53125 4.5 -22.953125q4.5 -10.4375 12.515625 -18.21875q8.03125 -7.796875 18.859375 -12.046875q10.84375 -4.265625 23.687485 -4.265625q13.0 0 24.0 4.421875q11.0 4.40625 18.703125 13.078125l-10.4375 10.125q-6.421875 -6.75 -14.453125 -10.03125q-8.015625 -3.296875 -17.171875 -3.296875q-9.46875 0 -17.57811 3.21875q-8.109375 3.203125 -14.046875 8.984375q-5.9375 5.78125 -9.234375 13.734375q-3.28125 7.9375 -3.28125 17.25q0 9.3125 3.28125 17.265625q3.296875 7.9375 9.234375 13.71875q5.9375 5.78125 14.046875 9.0q8.10936 3.203125 17.57811 3.203125q9.15625 0 17.171875 -3.296875q8.03125 -3.296875 14.453125 -10.1875l10.4375 10.109375q-7.703125 8.671875 -18.703125 13.171875q-11.0 4.484375 -24.15625 4.484375z" fill-rule="nonzero"/><path fill="#000000" fill-opacity="0.0" d="m208.63089 198.07109l99.558105 0l0 146.02916l-99.558105 0z" fill-rule="evenodd"/><path fill="#ff9393" d="m266.0684 299.66797q-6.390625 0 -11.875 -2.109375q-5.484375 -2.125 -9.53125 -6.0q-4.03125 -3.890625 -6.28125 -9.171875q-2.234375 -5.28125 -2.234375 -11.515625q0 -6.234375 2.234375 -11.515625q2.25 -5.2812653 6.328125 -9.156265q4.078125 -3.890625 9.515625 -6.0q5.453125 -2.125 11.921875 -2.125q6.890625 0 12.5625 2.359375q5.6875 2.359375 9.609375 7.0l-6.734375 6.3125153q-3.03125 -3.2812653 -6.796875 -4.9218903q-3.75 -1.640625 -8.15625 -1.640625q-4.40625 0 -8.046875 1.453125q-3.640625 1.4375 -6.328125 4.0781403q-2.671875 2.640625 -4.15625 6.25q-1.46875 3.59375 -1.46875 7.90625q0 4.3125 1.46875 7.921875q1.484375 3.59375 4.15625 6.234375q2.6875 2.640625 6.328125 4.09375q3.640625 1.4375 8.046875 1.4375q4.40625 0 8.15625 -1.640625q3.765625 -1.640625 6.796875 -5.0l6.734375 6.390625q-3.921875 4.5625 -9.609375 6.96875q-5.671875 2.390625 -12.640625 2.390625z" fill-rule="nonzero"/><path fill="#3a4059" d="m288.8058 308.95163l9.039368 -8.598419l31.307068 32.724396l-9.039368 8.59845z" fill-rule="evenodd"/><path fill="#3a4059" d="m259.22617 278.20737l0 0c-3.4615784 -3.4615784 -3.4650574 -9.077362 -0.0077819824 -12.543213l76.173035 -76.36241c1.6602478 -1.6643524 3.9128113 -2.6002045 6.262207 -2.6016693c2.3493958 -0.001449585 4.6031494 0.93159485 6.265442 2.5939026l0 0l0 0c3.4615784 3.461563 3.4650574 9.077347 0.0077819824 12.543198l-76.173035 76.36241c-3.4572754 3.4658508 -9.066101 3.4693298 -12.527649 0.0077819824z" fill-rule="evenodd"/><path stroke="#ffffff" stroke-width="4.0" stroke-linejoin="round" stroke-linecap="butt" d="m259.22617 278.20737l0 0c-3.4615784 -3.4615784 -3.4650574 -9.077362 -0.0077819824 -12.543213l76.173035 -76.36241c1.6602478 -1.6643524 3.9128113 -2.6002045 6.262207 -2.6016693c2.3493958 -0.001449585 4.6031494 0.93159485 6.265442 2.5939026l0 0l0 0c3.4615784 3.461563 3.4650574 9.077347 0.0077819824 12.543198l-76.173035 76.36241c-3.4572754 3.4658508 -9.066101 3.4693298 -12.527649 0.0077819824z" fill-rule="evenodd"/></g></svg>